 <svg width="108" height="33" viewBox="0 0 108 33" fill="none" xmlns="http://www.w3.org/2000/svg"><path fill="#448FFF" stroke="white" stroke-width="3" paint-order="stroke" d="M13.976 22.28C12.632 22.28 11.3627 22.0187 10.168 21.496C8.97333 20.9733 7.928 20.2547 7.032 19.34C6.136 18.4067 5.42667 17.3333 4.904 16.12C4.4 14.888 4.148 13.572 4.148 12.172C4.148 10.772 4.4 9.46533 4.904 8.252C5.42667 7.03867 6.136 5.97467 7.032 5.06C7.94667 4.12667 9.01067 3.408 10.224 2.904C11.456 2.38133 12.7813 2.12 14.2 2.12C15.7493 2.12 17.1867 2.41867 18.512 3.016C19.8373 3.61333 20.948 4.46267 21.844 5.564L19.66 7.748C19.0813 6.92667 18.3067 6.30133 17.336 5.872C16.3653 5.424 15.32 5.2 14.2 5.2C12.856 5.2 11.6707 5.49867 10.644 6.096C9.636 6.67467 8.852 7.48667 8.292 8.532C7.732 9.57733 7.452 10.7907 7.452 12.172C7.452 13.5533 7.732 14.776 8.292 15.84C8.87067 16.8853 9.64533 17.7067 10.616 18.304C11.5867 18.9013 12.688 19.2 13.92 19.2C15.2267 19.2 16.3467 18.9667 17.28 18.5C18.232 18.0147 18.96 17.3053 19.464 16.372C19.968 15.42 20.22 14.2533 20.22 12.872L22.236 14.328H13.864V11.388H23.552V11.836C23.552 14.1693 23.132 16.1107 22.292 17.66C21.4707 19.2093 20.3413 20.3667 18.904 21.132C17.4667 21.8973 15.824 22.28 13.976 22.28ZM31.3769 22.28C30.0702 22.28 28.8849 21.972 27.8209 21.356C26.7569 20.7213 25.9076 19.872 25.2729 18.808C24.6569 17.744 24.3489 16.5587 24.3489 15.252C24.3489 13.9453 24.6569 12.7693 25.2729 11.724C25.9076 10.6787 26.7569 9.848 27.8209 9.232C28.8849 8.59733 30.0702 8.28 31.3769 8.28C32.7022 8.28 33.8969 8.588 34.9609 9.204C36.0249 9.82 36.8649 10.66 37.4809 11.724C38.1156 12.7693 38.4329 13.9453 38.4329 15.252C38.4329 16.5587 38.1156 17.744 37.4809 18.808C36.8649 19.872 36.0249 20.7213 34.9609 21.356C33.8969 21.972 32.7022 22.28 31.3769 22.28ZM31.3769 19.312C32.1422 19.312 32.8142 19.144 33.3929 18.808C33.9902 18.4533 34.4476 17.968 34.7649 17.352C35.1009 16.736 35.2689 16.036 35.2689 15.252C35.2689 14.468 35.1009 13.7773 34.7649 13.18C34.4289 12.5827 33.9716 12.116 33.3929 11.78C32.8142 11.4253 32.1422 11.248 31.3769 11.248C30.6302 11.248 29.9582 11.4253 29.3609 11.78C28.7822 12.116 28.3249 12.5827 27.9889 13.18C27.6716 13.7773 27.5129 14.468 27.5129 15.252C27.5129 16.036 27.6716 16.736 27.9889 17.352C28.3249 17.968 28.7822 18.4533 29.3609 18.808C29.9582 19.144 30.6302 19.312 31.3769 19.312ZM43.8503 22L37.7183 8.56H41.1343L45.8103 19.508H43.7943L48.4983 8.56H51.7743L45.6423 22H43.8503ZM52.7477 22V8.56H55.8277V22H52.7477ZM61.6797 22V13.992C61.6797 13.096 61.3997 12.4053 60.8397 11.92C60.2797 11.416 59.589 11.164 58.7677 11.164C58.2077 11.164 57.7037 11.276 57.2557 11.5C56.8264 11.724 56.481 12.0507 56.2197 12.48C55.9584 12.8907 55.8277 13.3947 55.8277 13.992L54.6237 13.32C54.6237 12.2933 54.8477 11.4067 55.2957 10.66C55.7437 9.91333 56.3504 9.33467 57.1157 8.924C57.881 8.49467 58.7397 8.28 59.6917 8.28C60.6437 8.28 61.5024 8.48533 62.2677 8.896C63.033 9.30667 63.6397 9.88533 64.0877 10.632C64.5357 11.3787 64.7597 12.2747 64.7597 13.32V22H61.6797ZM70.6117 22V13.992C70.6117 13.096 70.3317 12.4053 69.7717 11.92C69.2117 11.416 68.521 11.164 67.6997 11.164C67.1584 11.164 66.6637 11.276 66.2157 11.5C65.7677 11.724 65.413 12.0507 65.1517 12.48C64.8904 12.8907 64.7597 13.3947 64.7597 13.992L63.0237 13.32C63.117 12.2933 63.4157 11.4067 63.9197 10.66C64.4237 9.91333 65.0677 9.33467 65.8517 8.924C66.6544 8.49467 67.5317 8.28 68.4837 8.28C69.4544 8.28 70.3317 8.48533 71.1157 8.896C71.8997 9.30667 72.525 9.88533 72.9917 10.632C73.4584 11.3787 73.6917 12.2747 73.6917 13.32V22H70.6117ZM81.5129 22.28C80.2995 22.28 79.1982 21.972 78.2089 21.356C77.2382 20.74 76.4635 19.9093 75.8849 18.864C75.3249 17.8 75.0449 16.6147 75.0449 15.308C75.0449 13.9827 75.3249 12.7973 75.8849 11.752C76.4635 10.688 77.2382 9.848 78.2089 9.232C79.1982 8.59733 80.2995 8.28 81.5129 8.28C82.5395 8.28 83.4449 8.504 84.2289 8.952C85.0315 9.38133 85.6662 9.97867 86.1329 10.744C86.5995 11.5093 86.8329 12.3773 86.8329 13.348V17.212C86.8329 18.1827 86.5995 19.0507 86.1329 19.816C85.6849 20.5813 85.0595 21.188 84.2569 21.636C83.4542 22.0653 82.5395 22.28 81.5129 22.28ZM82.0169 19.368C83.1555 19.368 84.0702 18.9853 84.7609 18.22C85.4702 17.4547 85.8249 16.4747 85.8249 15.28C85.8249 14.4773 85.6662 13.768 85.3489 13.152C85.0315 12.536 84.5835 12.06 84.0049 11.724C83.4449 11.3693 82.7822 11.192 82.0169 11.192C81.2702 11.192 80.6075 11.3693 80.0289 11.724C79.4689 12.06 79.0209 12.536 78.6849 13.152C78.3675 13.768 78.2089 14.4773 78.2089 15.28C78.2089 16.0827 78.3675 16.792 78.6849 17.408C79.0209 18.024 79.4689 18.5093 80.0289 18.864C80.6075 19.2 81.2702 19.368 82.0169 19.368ZM85.6289 22V18.388L86.1609 15.112L85.6289 11.864V8.56H88.7089V22H85.6289ZM97.3631 22.28C96.3364 22.28 95.4217 22.0653 94.6191 21.636C93.8164 21.188 93.1817 20.5813 92.7151 19.816C92.2671 19.0507 92.0431 18.1827 92.0431 17.212V13.348C92.0431 12.3773 92.2764 11.5093 92.7431 10.744C93.2097 9.97867 93.8444 9.38133 94.6471 8.952C95.4497 8.504 96.3551 8.28 97.3631 8.28C98.5764 8.28 99.6684 8.59733 100.639 9.232C101.628 9.848 102.403 10.688 102.963 11.752C103.542 12.7973 103.831 13.9827 103.831 15.308C103.831 16.6147 103.542 17.8 102.963 18.864C102.403 19.9093 101.628 20.74 100.639 21.356C99.6684 21.972 98.5764 22.28 97.3631 22.28ZM96.8591 19.368C97.6057 19.368 98.2591 19.2 98.8191 18.864C99.3977 18.5093 99.8457 18.024 100.163 17.408C100.499 16.792 100.667 16.0827 100.667 15.28C100.667 14.4773 100.499 13.768 100.163 13.152C99.8457 12.536 99.3977 12.06 98.8191 11.724C98.2591 11.3693 97.6057 11.192 96.8591 11.192C96.1124 11.192 95.4497 11.3693 94.8711 11.724C94.2924 12.06 93.8444 12.536 93.5271 13.152C93.2097 13.768 93.0511 14.4773 93.0511 15.28C93.0511 16.0827 93.2097 16.792 93.5271 17.408C93.8444 18.024 94.2924 18.5093 94.8711 18.864C95.4497 19.2 96.1124 19.368 96.8591 19.368ZM90.1671 27.6V8.56H93.2471V12.172L92.7151 15.448L93.2471 18.696V27.6H90.1671Z"></path></svg>