<?xml version="1.0" encoding="iso-8859-1"?>
<!-- Uploaded to: SVG Repo, www.svgrepo.com, Generator: SVG Repo Mixer Tools -->
<svg version="1.1" id="Layer_1" xmlns="http://www.w3.org/2000/svg" xmlns:xlink="http://www.w3.org/1999/xlink" 
	 viewBox="0 0 512 512" xml:space="preserve">
<circle style="fill:#88C5CC;" cx="256" cy="240" r="240"/>
<path style="fill:#80B9BF;" d="M494.152,269.312c-0.156-1.304-0.672-2.564-1.548-3.512c-0.056-1.488-0.664-2.92-1.652-3.996
	c-0.056-1.492-0.668-2.928-1.656-4.004c-0.056-1.488-0.668-2.924-1.656-4c-0.056-1.488-0.668-2.924-1.656-4
	c-0.052-1.488-0.668-2.924-1.656-4c-0.052-1.488-0.668-2.924-1.656-4c-0.036-1.06-0.352-2.084-0.892-2.972
	c0.04-0.272,0.084-0.552,0.084-0.828c0-1.564-0.644-3.08-1.676-4.2c-0.052-1.488-0.664-2.92-1.652-3.996
	c-0.052-1.492-0.668-2.928-1.656-4.004c-0.052-1.488-0.668-2.924-1.656-4c-0.052-1.488-0.668-2.924-1.656-4
	c-0.052-1.488-0.668-2.924-1.656-4c-0.052-1.488-0.668-2.924-1.652-4c-0.056-1.488-0.672-2.924-1.656-4
	c-0.056-1.488-0.668-2.924-1.656-4c-0.056-1.488-0.664-2.916-1.652-3.996c-0.056-1.492-0.668-2.928-1.656-4.004
	c-0.056-1.488-0.668-2.924-1.656-4c-0.052-1.488-0.668-2.924-1.656-4c-0.052-1.488-0.668-2.924-1.656-4
	c-0.052-1.488-0.668-2.924-1.656-4c-0.052-1.488-0.668-2.924-1.656-4c-0.052-1.488-0.668-2.924-1.656-4
	c-0.036-1.052-0.352-2.084-0.888-2.968c0.04-0.268,0.084-0.552,0.084-0.832c0-1.564-0.644-3.08-1.676-4.2
	c-0.052-1.488-0.668-2.924-1.656-4c-0.052-1.488-0.668-2.924-1.656-4c-0.052-1.488-0.668-2.924-1.656-4
	c-0.052-1.488-0.668-2.924-1.652-4c-0.056-1.488-0.668-2.924-1.656-4c-0.056-1.488-0.668-2.924-1.656-4
	c-0.056-1.488-0.664-2.916-1.652-3.996c-0.056-1.492-0.668-2.928-1.656-4.004c-0.056-1.488-0.668-2.924-1.656-4
	c-0.052-1.488-0.668-2.924-1.656-4c-0.052-1.488-0.668-2.924-1.656-4c-0.052-1.488-0.668-2.924-1.656-4
	c-0.052-1.488-0.668-2.924-1.656-4c-0.052-1.488-0.664-2.916-1.652-3.996c-0.052-1.492-0.668-2.928-1.656-4.004
	c-0.052-1.488-0.668-2.924-1.656-4c-0.052-1.488-0.668-2.924-1.656-4c-0.1-3.004-2.536-5.8-5.548-5.8H416c0-2.212-1.788-4-4-4
	s-4,1.788-4,4h-36c0-2.212-1.788-4-4-4s-4,1.788-4,4h-2.176c-1.48,0-2.896,0.936-3.94,1.988L325.348,122.7
	c-0.452-1.196-0.948-2.364-1.464-3.528c-10.208-27.6-36.736-47.256-67.884-47.256c-1.884,0-3.724,0.188-5.572,0.328
	c-30.064,2.292-55.024,22.936-63.616,50.772l-32.696-33.04c-1.048-1.048-2.46-1.976-3.94-1.976H148c0-2.212-1.788-4-4-4
	s-4,1.788-4,4h-36c0-2.212-1.788-4-4-4s-4,1.788-4,4h-1.52c-3.084,0-5.572,2.92-5.572,6c0,1.124,0.34,2.228,0.916,3.172
	c-0.04,0.272-0.084,0.556-0.084,0.828c0,1.564,0.644,3.08,1.676,4.2c0.056,1.488,0.672,2.924,1.656,4
	c0.056,1.488,0.664,2.92,1.652,3.996c0.056,1.492,0.668,2.928,1.656,4.004c0.056,1.488,0.668,2.924,1.656,4
	c0.056,1.488,0.668,2.924,1.656,4c0.052,1.488,0.668,2.924,1.656,4c0.052,1.488,0.668,2.924,1.656,4
	c0.052,1.488,0.668,2.924,1.656,4c0.052,1.488,0.668,2.924,1.656,4c0.052,1.488,0.664,2.92,1.652,3.996
	c0.052,1.492,0.668,2.928,1.656,4.004c0.052,1.488,0.668,2.924,1.656,4c0.052,1.488,0.668,2.924,1.656,4
	c0.052,1.488,0.668,2.924,1.656,4c0.052,1.488,0.668,2.924,1.656,4c0.052,1.488,0.664,2.924,1.652,4
	c0.056,1.488,0.664,2.92,1.652,3.996c0.04,1.056,0.352,2.084,0.896,2.976c-0.044,0.272-0.084,0.556-0.084,0.828
	c0,1.564,0.644,3.08,1.676,4.2c0.056,1.488,0.668,2.924,1.656,4c0.056,1.488,0.668,2.924,1.656,4c0.052,1.488,0.668,2.924,1.656,4
	c0.052,1.488,0.668,2.924,1.656,4c0.052,1.488,0.668,2.924,1.656,4c0.052,1.488,0.664,2.916,1.652,3.996
	c0.052,1.492,0.668,2.928,1.656,4.004c0.052,1.488,0.668,2.924,1.656,4c0.052,1.488,0.668,2.924,1.656,4
	c0.052,1.488,0.668,2.924,1.656,4c0.052,1.488,0.668,2.924,1.656,4c0.052,1.488,0.668,2.924,1.652,4
	c0.056,1.488,0.668,2.924,1.656,4c0.056,1.488,0.664,2.92,1.652,3.996c0.056,1.492,0.668,2.928,1.656,4.004
	c0.044,1.188,0.448,2.336,1.116,3.3v175.816v2.048v2.052c0,0.092,0.052,0.196,0.104,0.284c0.172,4.372,0.708,8.52,1.604,12.408
	c1.004,5.7,2.752,10.916,5.256,15.464c0.252,0.788,0.48,1.592,0.76,2.36c0.76,2.644,1.784,5.092,2.928,7.44
	C188.424,472.592,221.34,480,256,480C378.616,480,479.688,388.024,494.152,269.312z"/>
<path style="fill:#E6E6E6;" d="M317.264,144.408c-1.424,0-2.856-0.544-3.936-1.632c-2.176-2.172-2.176-5.696,0-7.876l44.556-44.556
	c1.052-1.048,2.46-1.632,3.94-1.632h55.696c3.084,0,5.572,2.492,5.572,5.572s-2.488,5.572-5.572,5.572h-53.392l-42.924,42.92
	C320.112,143.864,318.692,144.408,317.264,144.408z"/>
<g>
	<path style="fill:#263740;" d="M372,100c0,2.212-1.788,4-4,4l0,0c-2.212,0-4-1.788-4-4V88c0-2.212,1.788-4,4-4l0,0
		c2.212,0,4,1.788,4,4V100z"/>
	<path style="fill:#263740;" d="M416,100c0,2.212-1.788,4-4,4l0,0c-2.212,0-4-1.788-4-4V88c0-2.212,1.788-4,4-4l0,0
		c2.212,0,4,1.788,4,4V100z"/>
</g>
<rect x="372" y="88" style="fill:#CC584C;" width="36" height="12"/>
<path style="fill:#E6E6E6;" d="M194.736,144.408c1.424,0,2.856-0.544,3.936-1.632c2.176-2.172,2.176-5.696,0-7.876l-44.556-44.556
	c-1.052-1.048-2.46-1.632-3.94-1.632H94.48c-3.084,0-5.572,2.492-5.572,5.572s2.488,5.572,5.572,5.572h53.392l42.924,42.92
	C191.888,143.864,193.308,144.408,194.736,144.408z"/>
<g>
	<path style="fill:#263740;" d="M148,88c0-2.212-1.788-4-4-4l0,0c-2.212,0-4,1.788-4,4v12c0,2.212,1.788,4,4,4l0,0
		c2.212,0,4-1.788,4-4V88z"/>
	<path style="fill:#263740;" d="M104,88c0-2.212-1.788-4-4-4l0,0c-2.212,0-4,1.788-4,4v12c0,2.212,1.788,4,4,4l0,0
		c2.212,0,4-1.788,4-4V88z"/>
</g>
<g>
	<rect x="104" y="88" style="fill:#CC584C;" width="36" height="12"/>
	<path style="fill:#CC584C;" d="M317.264,156H256h-61.264C170.368,176,148,195.468,148,227.948v189.368
		C148,443.488,161.832,464,189.164,464H256h66.836C350.168,464,364,443.488,364,417.316V227.948
		C364,195.468,341.632,176,317.264,156z"/>
</g>
<g>
	<path style="fill:#BF5347;" d="M317.264,156H256h-61.264c-4.664,4-9.164,7.128-13.412,10.976
		c9.636,32.132,39.444,55.516,74.676,55.516s65.04-23.328,74.676-55.452C326.428,163.188,321.928,160,317.264,156z"/>
	<path style="fill:#BF5347;" d="M317.264,156h-16.712c24.368,20,43.44,39.468,43.44,71.948v189.368
		c0,26.172-10.544,46.684-37.876,46.684h16.712c27.332,0,41.164-20.512,41.164-46.684V227.948C364,195.468,341.632,176,317.264,156z
		"/>
</g>
<path style="fill:#994239;" d="M187.792,464H256h68.208c27.896,0,39.784-19.444,39.784-45.616c0,6.148-5.092,10.604-11.368,10.604
	c-6.28,0-11.368-5.252-11.368-11.416c0-47.528-42.892-72.532-85.256-72.532s-85.256,24.804-85.256,72.34
	c0,6.152-5.084,11.104-11.368,11.104c-6.268,0-11.368-3.932-11.368-10.088C148.008,444.572,159.904,464,187.792,464z"/>
<path style="fill:#242424;" d="M256,344.916c-22.276,0-44,12.364-44,38.988v89.108c0,26.18,21.724,38.988,44,38.988
	s44-12.808,44-38.988v-89.108C300,357.272,278.276,344.916,256,344.916z"/>
<path style="fill:#1A1A1A;" d="M255.724,344.916c-1.864,0-2.288,0.116-4.144,0.288c20.272,1.908,40.42,14.296,40.42,38.7v89.108
	c0,23.992-20.008,36.72-40.272,38.684c1.852,0.18,2.78,0.304,4.64,0.304C278.644,512,300,499.192,300,473.012v-89.108
	C300,357.272,278,344.916,255.724,344.916z"/>
<path style="fill:#263740;" d="M328.408,144.408c0,40-32.44,72.408-72.408,72.408s-72.408-32.408-72.408-72.408
	C183.592,104.444,216.032,72,256,72C295.96,72,328.408,104.444,328.408,144.408z"/>
<path style="fill:#1E2C33;" d="M256,72c-1.884,0-3.724,0.144-5.572,0.28c37.36,2.856,66.836,34.048,66.836,72.124
	c0,38.108-29.476,69.264-66.836,72.116c1.848,0.144,3.688,0.28,5.572,0.28c39.96,0,72.408-32.408,72.408-72.408
	C328.408,104.444,295.96,72,256,72z"/>
<path style="fill:#F5F5F5;" d="M256,194.532c-27.644,0-50.124-22.484-50.124-50.124S228.356,94.28,256,94.28
	s50.124,22.484,50.124,50.124S283.644,194.532,256,194.532z"/>
<path style="fill:#CC665C;" d="M204,404v-20.096c0-34.44,25.172-50.128,52-50.128s52,15.688,52,50.128V404H204z"/>
<path style="fill:#BF6056;" d="M254.148,333.768c-1.844,0-3.064,0.092-4.924,0.252C274.328,336.048,300,351.836,300,383.904V404h8
	v-20.096C308,349.456,280.976,333.768,254.148,333.768z"/>
</svg>